<svg xmlns="http://www.w3.org/2000/svg" fill="none" id="logo-md" viewBox="0 0 91 60"><path d="M91 59.686H40.579c2.035-1.672 2.04-3.783 2.046-5.865 0-.414.002-.828.019-1.236.138-3.342.223-6.674.254-9.995 0-.776.268-1.143.946-1.494 6.4-3.3 12.848-6.502 19.344-9.607 1.644-.786 3.281-1.584 4.709-2.74l.14-.11c.352-.276.751-.587.598-1.09-.154-.49-.715-.558-1.176-.608-.769-.077-1.544-.147-2.316-.154-2.094-.018-4.187-.024-6.28-.03l-3.024-.01a6.643 6.643 0 0 1-3.139-.735c-2.005-1.06-2.5-3.008-1.226-4.886 1.003-1.5 2.44-2.586 3.9-3.619.325-.229.655-.45.986-.67.443-.296.885-.592 1.314-.907a4.21 4.21 0 0 1 .135-.093c.278-.187.605-.407.439-.789-.126-.296-.438-.247-.727-.202a2.743 2.743 0 0 1-.222.028c-.29.019-.582.041-.873.063-1.213.093-2.428.186-3.649.027-2.714-.334-3.846-1.55-2.41-4.755.56-1.26 1.6-2.18 2.63-3.089.202-.177.402-.355.599-.534.396-.36.81-.7 1.223-1.04.845-.694 1.689-1.388 2.373-2.25.719-.913.605-1.18-.525-1.465a5.268 5.268 0 0 0-2.185-.207c-.953.174-1.056-.42-1.123-1.04-.053-.462.135-.575.374-.584h.071c.085.003.173.015.258.027.1.014.195.027.273.023a15.482 15.482 0 0 1 5.628.632c2.596.872 3.007 2.626 1.022 4.49-.519.486-1.053.956-1.587 1.426-1.212 1.066-2.424 2.132-3.458 3.381a5.988 5.988 0 0 1-.285.31c-.361.371-.75.771-.544 1.224.19.418.65.336 1.1.257.177-.032.352-.063.508-.063.28 0 .559-.003.838-.007 1.115-.014 2.229-.028 3.336.181.77.112 1.505.394 2.152.825 1.21.886 1.39 1.892.495 3.085-1.025 1.368-2.317 2.465-3.61 3.563-.305.26-.61.518-.912.781-.225.194-.454.383-.684.573-.753.622-1.514 1.25-2.146 2.063.5.306.989.286 1.46.267.138-.006.273-.011.407-.009.832.01 1.664.003 2.497-.005 2.616-.025 5.232-.05 7.82.493 1.808.377 3.506 1.002 4.843 2.34 1.09 1.095 1.18 2.027.31 3.317a10.167 10.167 0 0 1-3.255 2.944c-5.718 3.495-11.617 6.663-17.572 9.738-1.263.652-1.891.973-2.175 1.485-.283.51-.224 1.21-.111 2.612.112 1.385.21 2.756.31 4.124.101 1.409.203 2.815.318 4.23.14 1.704.238 1.778 1.912 2.005 7.884 1.026 15.804 1.62 23.728 2.142 4.601.3 9.203.607 13.806.92l.04-.001c.17-.002.358-.004.465.313a.744.744 0 0 1 .007.021" fill="#0A1"/><path d="M41.802 9.273c.521.401 1.176.314 1.754.478a7.24 7.24 0 0 1 2.778 1.394c1.3 1.09 1.377 2.406.18 3.595-1.196 1.19-2.674 2.112-4.13 2.988-2.163 1.286-4.472 2.34-6.44 3.926-.318.258-.612.548-1.07.963 1.952-.214 3.676-.398 5.387-.599a8.725 8.725 0 0 1 2.888.168c1.604.357 1.878 1.256.775 2.452A12.01 12.01 0 0 1 41.25 26.7c-3.395 2.09-7.001 3.823-10.246 6.17-1.728 1.25-3.493 2.442-5.04 3.925a9.415 9.415 0 0 0-1.838 2.38c-.481.915-.29 1.25.725 1.106 1.53-.214 3.055-.505 4.572-.816 3.302-.668 6.497-1.77 9.735-2.693.358-.104.699-.358 1.297-.104-.832.863-1.444 1.858-2.426 2.443-4.114 2.443-8.355 4.595-13.241 5.013-1.08.093-2.163.187-3.232-.1-2.263-.605-3.463-2.744-2.7-4.946a10.585 10.585 0 0 1 3.649-5.126c2.88-2.18 6.096-3.833 9.144-5.748.414-.26.912-.415 1.31-1.076-1.305.36-2.662.485-4.01.37-1.087-.076-2.093-.313-2.584-1.443-.491-1.13-.09-2.122.612-3.007.748-.96 1.747-1.638 2.727-2.34 2.88-2.038 5.912-3.842 8.88-5.74.668-.435 1.336-.9 2.118-1.428-.785-.43-1.48-.16-2.128-.257-.649-.097-1.4-.1-2.07-.27-1.002-.258-1.533-1.163-1.393-2.246a4.37 4.37 0 0 1 2.152-3.165c4.345-2.767 8.783-5.396 13.743-6.96.434-.137 1.093-.689 1.337-.134a1.49 1.49 0 0 1-.632 1.921c-3.128 1.728-5.825 4.097-8.893 5.92-.388.226-.852.403-1.033.921" fill="#0083F1"/><path fill-rule="evenodd" clip-rule="evenodd" d="M53.733 0h.071c.085.003.173.015.258.027.1.014.195.027.273.023a15.482 15.482 0 0 1 5.628.632c2.596.872 3.007 2.626 1.022 4.49-.519.486-1.053.956-1.587 1.426-1.212 1.066-2.424 2.132-3.458 3.381a5.988 5.988 0 0 1-.285.31c-.361.371-.75.771-.544 1.224.19.418.65.336 1.1.257.177-.032.352-.063.508-.063.28 0 .559-.003.838-.007 1.115-.014 2.229-.028 3.336.181.77.112 1.505.394 2.152.825 1.21.886 1.39 1.892.495 3.085-1.025 1.368-2.317 2.465-3.61 3.563-.305.26-.61.518-.912.781-.225.194-.454.383-.684.573-.753.622-1.514 1.25-2.146 2.063.5.306.989.286 1.46.267.138-.006.273-.011.407-.009.832.01 1.664.003 2.497-.005 2.616-.025 5.232-.05 7.82.493 1.808.377 3.506 1.002 4.843 2.34 1.09 1.095 1.18 2.027.31 3.317a10.167 10.167 0 0 1-3.255 2.944c-5.718 3.495-11.617 6.663-17.572 9.738-1.263.652-1.891.973-2.175 1.485-.283.51-.224 1.21-.111 2.612.112 1.385.21 2.756.31 4.124.101 1.409.203 2.815.318 4.23.14 1.704.238 1.778 1.912 2.005 7.884 1.026 15.804 1.62 23.728 2.142 4.601.3 9.203.607 13.806.92l.04-.001c.17-.002.358-.004.465.313H40.58c2.035-1.672 2.04-3.783 2.046-5.865 0-.414.002-.828.019-1.236.138-3.342.223-6.674.254-9.995 0-.776.268-1.143.946-1.494 6.4-3.3 12.848-6.502 19.344-9.607 1.644-.786 3.281-1.584 4.709-2.74l.14-.11c.352-.276.751-.587.598-1.09-.154-.49-.715-.558-1.176-.608-.769-.077-1.544-.147-2.316-.154-2.094-.018-4.187-.024-6.28-.03l-3.024-.01a6.643 6.643 0 0 1-3.139-.735c-2.005-1.06-2.5-3.008-1.226-4.886 1.003-1.5 2.44-2.586 3.9-3.619.325-.229.655-.45.986-.67.443-.296.885-.592 1.314-.907a4.21 4.21 0 0 1 .135-.093c.278-.187.605-.407.439-.789-.126-.296-.438-.247-.727-.202a2.743 2.743 0 0 1-.222.028c-.29.019-.582.041-.873.063-1.213.093-2.428.186-3.649.027-2.714-.334-3.846-1.55-2.41-4.755.56-1.26 1.6-2.18 2.63-3.089.202-.177.402-.355.599-.534.396-.36.81-.7 1.223-1.04.845-.694 1.689-1.388 2.373-2.25.719-.913.605-1.18-.525-1.465a5.268 5.268 0 0 0-2.185-.207c-.953.174-1.056-.42-1.123-1.04-.053-.462.135-.575.374-.584Z" fill="#0A1"/><path d="M34.062 59.97c-2.266-.06-4.238-1.026-6.06-2.32-.637-.454-.982-.387-1.543.118-3.175 2.87-5.889 2.924-9.197.173-.582-.48-.876-.437-1.414.04-1.46 1.298-2.908 1.972-4.348 2.02a4.914 4.914 0 0 1-.322 0c-1.418-.047-2.832-.702-4.247-1.97-.688-.614-1.002-.48-1.557.074a5.682 5.682 0 0 1-3.603 1.698C.83 59.88.101 59.54.017 58.55c-.067-.902.531-1.41 1.437-1.487 1.51-.127 2.406-1.143 3.228-2.243 1.003-1.336 1.648-1.36 2.747-.127.335.375.669.746 1.05 1.087 2.199 2.031 4.124 1.914 6.079-.358 1.808-2.105 1.808-2.105 3.84-.127 2.62 2.553 4.345 2.51 6.864-.167.096-.104.188-.212.28-.319.086-.098.17-.197.258-.293.803-.882 1.367-.955 2.29-.203a15.97 15.97 0 0 0 3.713 2.362c2.249.97 4.311.668 6.106-1.036.668-.642 1.373-.769 2.045-.117.672.652.498 1.414-.107 2.055-1.557 1.651-3.543 2.286-5.785 2.393Z" fill="#0083F1"/></svg>
